<svg width="27" height="24" viewBox="0 0 27 24" fill="none" xmlns="http://www.w3.org/2000/svg">
<path d="M25.097 23.5875C25.8916 23.5875 26.5359 23.0147 26.5359 22.3083V1.69166C26.5359 0.985138 25.8917 0.412598 25.097 0.412598H1.9031C1.10825 0.412598 0.464142 0.985138 0.464142 1.69166V22.3083C0.464142 23.0147 1.10815 23.5875 1.9031 23.5875H25.097Z" fill="#3C5A99"/>
<path d="M18.4533 23.5874V14.6128H21.8422L22.3496 11.1153H18.4533V8.88231C18.4533 7.86969 18.7696 7.17962 20.4032 7.17962L22.4868 7.17881V4.05057C22.1264 4.00795 20.8896 3.91272 19.4506 3.91272C16.4466 3.91272 14.3899 5.54266 14.3899 8.53593V11.1153H10.9923V14.6128H14.3899V23.5874H18.4533Z" fill="white"/>
</svg>
